{
  "accessors": [
    {
      "bufferView": 2,
      "componentType": 5126,
      "count": 5709,
      "max": [
        1.3832000494003296,
        1.0777000188827515,
        1.4541000127792358
      ],
      "min": [
        -1.4752999544143677,
        -0.79890000820159912,
        -1.3907999992370605
      ],
      "type": "VEC3"
    },
    {
      "bufferView": 2,
      "byteOffset": 68508,
      "componentType": 5126,
      "count": 5709,
      "max": [
        0.99928724765777588,
        0.99989676475524902,
        0.99997997283935547
      ],
      "min": [
        -0.99988865852355957,
        -0.99876391887664795,
        -0.99982517957687378
      ],
      "type": "VEC3"
    },
    {
      "bufferView": 3,
      "componentType": 5126,
      "count": 5709,
      "max": [
        0.99997198581695557,
        0.99969738721847534,
        0.99941104650497437,
        1
      ],
      "min": [
        -0.99998170137405396,
        -0.99794298410415649,
        -0.99823474884033203,
        -1
      ],
      "type": "VEC4"
    },
    {
      "bufferView": 1,
      "componentType": 5126,
      "count": 5709,
      "max": [
        0.96399998664855957,
        0.98000001907348633
      ],
      "min": [
        0.019999999552965164,
        0.019999999552965164
      ],
      "type": "VEC2"
    },
    {
      "bufferView": 0,
      "componentType": 5125,
      "count": 29403,
      "max": [
        5708
      ],
      "min": [
        0
      ],
      "type": "SCALAR"
    }
  ],
  "asset": {
    "extras": {
      "author": "Indie Omega (Alan Antich) (https://sketchfab.com/IOM_Studios)",
      "license": "CC-BY-4.0 (http://creativecommons.org/licenses/by/4.0/)",
      "source": "https://sketchfab.com/models/df936bc8c3e14aeb98a242943b9caf35",
      "title": "Potato Character"
    },
    "generator": "Sketchfab-3.22.13",
    "version": "2.0"
  },
  "bufferViews": [
    {
      "buffer": 0,
      "byteLength": 117612,
      "byteOffset": 0,
      "name": "floatBufferViews",
      "target": 34963
    },
    {
      "buffer": 0,
      "byteLength": 45672,
      "byteOffset": 117612,
      "byteStride": 8,
      "name": "floatBufferViews",
      "target": 34962
    },
    {
      "buffer": 0,
      "byteLength": 137016,
      "byteOffset": 163284,
      "byteStride": 12,
      "name": "floatBufferViews",
      "target": 34962
    },
    {
      "buffer": 0,
      "byteLength": 91344,
      "byteOffset": 300300,
      "byteStride": 16,
      "name": "floatBufferViews",
      "target": 34962
    }
  ],
  "buffers": [
    {
      "byteLength": 391644,
      "uri": "scene.bin"
    }
  ],
  "images": [
    {
      "uri": "textures/COLMILLOSRETOPOLOGY_default_normal.png"
    },
    {
      "uri": "textures/COLMILLOSRETOPOLOGY_default_baseColor.png"
    }
  ],
  "materials": [
    {
      "doubleSided": true,
      "emissiveFactor": [
        0,
        0,
        0
      ],
      "name": "COLMILLOSRETOPOLOGY_default",
      "normalTexture": {
        "index": 0,
        "scale": 1,
        "texCoord": 0
      },
      "pbrMetallicRoughness": {
        "baseColorFactor": [
          1,
          1,
          1,
          1
        ],
        "baseColorTexture": {
          "index": 1,
          "texCoord": 0
        },
        "metallicFactor": 0,
        "roughnessFactor": 0.69683689019999995
      }
    }
  ],
  "meshes": [
    {
      "primitives": [
        {
          "attributes": {
            "NORMAL": 1,
            "POSITION": 0,
            "TANGENT": 2,
            "TEXCOORD_0": 3
          },
          "indices": 4,
          "material": 0,
          "mode": 4
        }
      ]
    }
  ],
  "nodes": [
    {
      "children": [
        1
      ],
      "name": "RootNode (gltf orientation matrix)",
      "rotation": [
        -0.70710678118654746,
        -0,
        -0,
        0.70710678118654757
      ]
    },
    {
      "children": [
        2
      ],
      "name": "RootNode (model correction matrix)"
    },
    {
      "children": [
        3
      ],
      "name": "Potato_LOW.obj.cleaner.materialmerger.gles"
    },
    {
      "mesh": 0,
      "name": ""
    }
  ],
  "samplers": [
    {
      "magFilter": 9729,
      "minFilter": 9987,
      "wrapS": 10497,
      "wrapT": 10497
    }
  ],
  "scene": 0,
  "scenes": [
    {
      "name": "OSG_Scene",
      "nodes": [
        0
      ]
    }
  ],
  "textures": [
    {
      "sampler": 0,
      "source": 0
    },
    {
      "sampler": 0,
      "source": 1
    }
  ]
}

